<?xml version="1.0" encoding="UTF-8"?> <svg xmlns="http://www.w3.org/2000/svg" width="63" height="60" viewBox="0 0 63 60" fill="none"><path fill-rule="evenodd" clip-rule="evenodd" d="M49.9035 19.9871L49.1056 23.031C50.6732 25.9476 51.4969 29.2122 51.4969 32.5531C51.4969 37.1225 50.0045 41.4305 47.1813 45.0113L47.1059 45.1068L47.0186 45.1916C46.9995 45.2101 46.9391 45.2677 46.8371 45.3567L46.9348 60H15.7871L15.8842 45.4343C12.8793 41.8269 11.2248 37.2563 11.2248 32.5531C11.2248 29.2123 12.0485 25.9476 13.6161 23.031L12.8186 19.9874C11.6866 16.53 12.2563 12.858 14.3856 9.90384C16.2978 7.25089 19.1564 5.60811 22.3539 5.28642L24.9971 0H37.725L40.3681 5.28617C43.5656 5.60799 46.4244 7.25077 48.3364 9.90359C50.4658 12.8579 51.0354 16.53 49.9035 19.9871ZM33.1991 53.465V56.3239H43.2344L43.1767 47.65C40.6021 48.8659 36.7005 50.0749 31.3613 50.0749C25.8888 50.0749 22.0213 48.9209 19.5449 47.7907L19.4879 56.324H29.5231V53.465H33.1991ZM41.4846 44.3868C43.1712 43.6068 44.1313 42.836 44.3875 42.6165C46.6343 39.7142 47.821 36.2379 47.8212 32.553C47.8212 26.3085 44.3563 20.6766 38.7785 17.8553L40.4376 14.5752C42.6746 15.7067 44.6727 17.2422 46.3373 19.0937L46.3772 18.9415L46.3962 18.8844C47.1762 16.5442 46.7965 14.0544 45.354 12.0532C43.9118 10.0521 41.6699 8.90433 39.203 8.90433H38.0671L35.453 3.67622H27.2689L24.6549 8.90433H23.5189C21.0522 8.90433 18.8101 10.0521 17.3678 12.0533C15.9254 14.0545 15.5458 16.5444 16.3257 18.8845L16.36 18.9998L16.3847 19.0938C18.0492 17.2423 20.0473 15.7067 22.2843 14.5753L23.9434 17.8554C18.3657 20.6766 14.9009 26.3082 14.9009 32.5529C14.9009 36.3735 16.2357 40.0872 18.6624 43.0264C18.9103 43.2311 19.8559 43.9579 21.5834 44.6773C23.4689 45.4627 26.6959 46.3989 31.361 46.3989C36.1327 46.3989 39.5 45.3047 41.4846 44.3868ZM0 28.3178L2.59929 25.7186L9.10683 32.2262L2.59929 38.7337L0 36.1344L3.90812 32.2262L0 28.3178ZM62.7219 28.3178L60.1226 25.7186L53.6151 32.2262L60.1226 38.7337L62.7219 36.1344L58.8138 32.2262L62.7219 28.3178ZM29.523 36.4739V34.636H33.1989V38.312H29.523V36.4739Z" fill="#EB2A41"></path></svg> 